<svg width="243" height="64" viewBox="0 0 243 64" fill="none" xmlns="http://www.w3.org/2000/svg">
<path d="M6.84155 63.2219C-6.28205 63.2219 3.51168 50.772 3.51168 50.772L25.6455 9.92097C25.6455 9.92097 30.1506 0 38.3774 0C46.6041 0 47.1917 10.1155 47.1917 10.1155L51.6969 50.772C51.6969 50.772 57.3772 63.2219 45.0371 63.2219H37.0063C31.7176 63.2219 30.1506 61.6657 30.9341 58.1641C31.5218 56.0243 32.697 53.4954 33.2846 51.7447C33.6764 51.1611 33.8723 50.5775 33.6764 49.9939L33.2846 46.4924C33.2846 45.7143 32.5011 45.3252 31.7176 45.3252H19.9652C19.1817 45.3252 18.3982 45.7143 18.0064 46.4924L16.0477 49.9939C15.8518 50.5775 15.6559 51.3556 15.6559 51.9392C15.6559 56.0243 18.0064 63.2219 7.2333 63.2219H6.84155ZM30.1506 33.0699C30.9341 33.0699 31.5218 32.2918 31.5218 31.5137L30.9341 26.845C30.9341 25.6778 29.3671 25.6778 28.5836 26.845L26.0373 31.5137C25.6455 32.2918 26.2331 33.0699 27.0166 33.0699H30.1506Z" fill="#2A91FB"/>
<path d="M96.1635 15.9514C107.916 15.9514 112.421 26.2614 109.679 39.1003C106.937 52.1337 99.6892 64 85.978 64C82.2564 64 79.71 63.0274 77.7513 61.0821C76.3801 62.6383 74.6173 63.2219 71.0915 63.2219H64.6276C59.339 63.2219 57.772 61.6657 58.5555 58.1641C59.1432 55.6353 61.1019 52.3283 61.2978 50.772L68.1534 19.0638C69.3286 13.228 66.5864 13.0334 67.174 10.1155C68.1534 5.05775 76.576 0 83.2357 0C92.8336 0 88.7202 7.00304 87.7409 11.6717L86.1739 19.0638C89.112 17.1185 92.246 15.9514 96.1635 15.9514ZM82.2564 54.2736C84.2151 54.2736 87.3491 48.2432 89.112 39.6839C91.0707 30.9301 90.4831 25.2888 88.5244 25.2888C86.5656 25.2888 84.0192 30.152 82.0605 37.9331L81.4729 41.2401C79.9059 49.0213 80.2976 54.2736 82.2564 54.2736Z" fill="#2A91FB"/>
<path d="M137.06 15.9514C151.163 15.9514 155.472 27.234 152.73 40.0729C149.988 52.9119 140.194 64 126.874 64C113.751 64 108.658 52.9119 111.4 40.0729C114.143 27.234 123.153 15.9514 137.06 15.9514ZM128.441 56.2188C130.4 56.2188 133.534 48.4377 135.297 40.0729C137.06 31.5137 137.452 23.7325 135.493 23.7325C133.73 23.7325 130.4 31.5137 128.637 40.0729C126.874 48.4377 126.679 56.2188 128.441 56.2188Z" fill="#2A91FB"/>
<path d="M207.27 21.0091C206.683 23.538 204.724 26.845 204.528 28.4012L199.631 50.772C199.435 52.3283 199.827 55.6353 199.239 58.1641C198.456 61.6657 196.497 63.2219 191.209 63.2219H184.941C179.456 63.2219 178.085 61.6657 178.868 58.1641C179.064 57.7751 178.673 57.5806 178.281 57.9696C175.539 60.8875 171.817 63.6109 166.724 63.6109C152.817 63.6109 156.147 47.076 156.931 44.9362L160.456 28.4012C160.652 27.4286 160.26 23.3435 160.848 21.0091C161.632 17.5076 163.394 15.9514 168.879 15.9514H175.147C180.436 15.9514 182.003 17.5076 181.219 21.0091C180.631 23.538 178.673 26.845 178.477 28.4012L174.951 44.3526C174.755 45.1307 173.188 52.3283 177.106 52.3283C180.436 52.3283 182.394 46.8815 183.178 43.9635L186.508 28.4012C186.704 27.4286 186.312 23.3435 186.899 21.0091C187.683 17.5076 189.446 15.9514 194.93 15.9514H201.198C206.487 15.9514 208.054 17.5076 207.27 21.0091Z" fill="#2A91FB"/>
<path d="M238.774 48.8267C244.846 48.8267 238.186 64 223.104 64C210.568 64 210.764 55.4407 213.898 40.8511L215.661 32.8754C215.661 32.2918 215.465 31.9027 214.877 31.9027H214.094C211.156 31.9027 209.197 29.5684 209.98 26.6505L210.568 23.7325C211.156 20.8146 214.094 18.4802 217.032 18.4802H217.62C218.207 18.4802 218.599 17.8967 218.795 17.3131C218.991 13.617 216.836 13.0334 217.228 10.5046C218.403 5.64134 226.63 0.583591 233.485 0.583591C242.887 0.583591 238.97 7.58663 237.991 12.2553L237.011 17.5076C236.815 18.0912 237.207 18.4802 237.599 18.4802H238.774C241.712 18.4802 243.475 20.8146 242.887 23.7325L242.3 26.6505C241.516 29.5684 238.774 31.9027 235.836 31.9027H234.661C234.269 31.9027 233.681 32.2918 233.681 32.8754L231.918 40.8511C230.547 47.076 230.156 50.5775 233.094 50.5775C235.052 50.5775 235.64 48.8267 238.774 48.8267Z" fill="#2A91FB"/>
</svg>
