<svg width="224" height="62" viewBox="0 0 224 62" fill="none" xmlns="http://www.w3.org/2000/svg">
<mask id="path-1-outside-1_558_97" maskUnits="userSpaceOnUse" x="-0.5" y="-0.5" width="225" height="63" fill="black">
<rect fill="white" x="-0.5" y="-0.5" width="225" height="63"/>
<path d="M10.924 61.5C7.76028 61.5 5.23202 60.5996 3.33921 58.7987C1.4464 56.971 0.5 54.4714 0.5 51.2997C0.5 49.6064 0.770401 47.9265 1.3112 46.2601C1.87905 44.5668 2.51449 42.8734 3.21753 41.1801C3.92058 39.4868 4.5425 37.7935 5.0833 36.1001C5.65115 34.4068 5.93507 32.7 5.93507 30.9798C5.93507 29.3403 5.73227 27.741 5.32666 26.1821C4.92106 24.5963 4.43434 22.9836 3.8665 21.344C3.32569 19.7045 2.82545 18.0111 2.36577 16.264C1.93313 14.4901 1.71681 12.6355 1.71681 10.7003C1.71681 7.52864 2.46041 5.04241 3.94762 3.24157C5.43482 1.41386 7.76028 0.5 10.924 0.5C14.0877 0.5 16.4131 1.41386 17.9003 3.24157C19.4146 5.04241 20.1717 7.52864 20.1717 10.7003C20.1717 12.4742 19.9419 14.2213 19.4822 15.9415C19.0495 17.6617 18.5493 19.355 17.9814 21.0215C17.4406 22.6879 16.9539 24.3409 16.5213 25.9805C16.1157 27.6201 15.9129 29.2865 15.9129 30.9798C15.9129 32.7 16.1833 34.4202 16.7241 36.1404C17.2919 37.8338 17.9274 39.5271 18.6304 41.2204C19.3605 42.9137 19.9959 44.6071 20.5367 46.3004C21.1046 47.9668 21.3885 49.6333 21.3885 51.2997C21.3885 54.4714 20.4286 56.971 18.5087 58.7987C16.6159 60.5996 14.0877 61.5 10.924 61.5Z"/>
<path d="M58.9067 61.5C56.0404 61.5 53.7961 60.5996 52.1737 58.7987C50.5513 56.971 49.7401 54.4714 49.7401 51.2997C49.7401 49.5795 49.9158 47.94 50.2674 46.381C50.6459 44.8221 51.0651 43.29 51.5247 41.7849C52.0115 40.2528 52.4441 38.7073 52.8227 37.1484C53.2012 35.5894 53.3905 33.9499 53.3905 32.2297C53.3905 30.6707 53.1066 29.394 52.5387 28.3995C51.8087 27.1094 50.673 26.4643 49.1317 26.4643C46.9414 26.4643 44.8458 27.6604 42.8449 30.0525C40.8709 32.4178 39.884 34.9175 39.884 37.5516C39.884 38.6804 40.5329 40.4544 41.8308 42.8734C42.5069 44.1636 43.1153 45.5344 43.6561 46.9858C44.1969 48.4372 44.4673 50.0633 44.4673 51.8642C44.4673 54.8477 43.5614 57.1995 41.7497 58.9197C39.9651 60.6399 37.6667 61.5 34.8545 61.5C32.0423 61.5 29.7304 60.6399 27.9187 58.9197C26.134 57.1995 25.2417 54.8611 25.2417 51.9045C25.2417 50.0768 25.5121 48.4372 26.0529 46.9858C26.5937 45.5344 27.2157 44.1636 27.9187 42.8734C28.5136 41.7714 29.0273 40.6694 29.46 39.5674C29.8926 38.4654 30.1089 37.3097 30.1089 36.1001C30.1089 34.9981 29.9602 33.9768 29.6628 33.036C29.3924 32.0684 29.0679 31.1008 28.6893 30.1332C28.3108 29.1656 27.9457 28.1173 27.5942 26.9884C27.2697 25.8327 27.1075 24.5425 27.1075 23.118C27.1075 20.6452 27.8646 18.7234 29.3789 17.3526C30.8931 15.9549 32.7183 15.2561 34.8545 15.2561C36.9907 15.2561 38.8159 15.9415 40.3301 17.3123C41.0872 18.038 41.6686 18.8981 42.0742 19.8926C42.2365 20.3226 42.4257 20.5377 42.6421 20.5377C42.8584 20.5377 43.1153 20.3764 43.4127 20.0539C46.4682 16.8554 50.051 15.2561 54.1612 15.2561C56.054 15.2561 57.8521 15.6055 59.5557 16.3044C61.2862 16.9763 62.6788 18.0514 63.7334 19.5297C64.7879 20.9812 65.3152 22.8358 65.3152 25.0935C65.3152 26.5718 65.1394 28.0367 64.7879 29.4881C64.3012 31.5308 64.0578 33.1704 64.0578 34.4068C64.0578 36.0195 64.2742 37.5112 64.7068 38.882C65.1394 40.2528 65.6532 41.6236 66.2481 42.9944C66.843 44.3652 67.3703 45.8032 67.8299 47.3083C68.2896 48.8135 68.5195 50.4531 68.5195 52.227C68.5195 55.1568 67.5866 57.4414 65.7208 59.081C63.855 60.6937 61.5837 61.5 58.9067 61.5Z"/>
<path d="M83.04 61.5C79.9034 61.5 77.3751 60.5996 75.4553 58.7987C73.5624 56.971 72.616 54.4714 72.616 51.2997C72.616 49.6333 72.8324 47.9534 73.265 46.2601C73.6976 44.5668 74.1844 42.8734 74.7252 41.1801C75.293 39.4868 75.7933 37.7935 76.2259 36.1001C76.6585 34.4068 76.8749 32.7 76.8749 30.9798C76.8749 28.8296 76.5504 25.9939 75.9014 22.4729C75.3065 19.3819 75.0091 16.8957 75.0091 15.0142C75.0091 11.6813 75.7527 8.93974 77.2399 6.78949C78.7542 4.63924 80.7957 3.05343 83.3645 2.03206C85.9333 1.01069 88.8131 0.5 92.0038 0.5C95.0594 0.5 97.9121 1.17195 100.562 2.51586C103.239 3.85977 105.105 5.66061 106.159 7.91837C106.646 8.91287 106.889 9.8536 106.889 10.7406C106.889 14.2616 105.132 16.0221 101.617 16.0221C99.9131 16.0221 98.4529 15.2024 97.2361 13.5628C96.7223 12.8908 96.0463 12.2995 95.2081 11.7888C94.3969 11.2513 93.5316 10.9825 92.6122 10.9825C90.9357 10.9825 89.746 11.6813 89.0429 13.079C88.3669 14.4498 88.0289 16.7075 88.0289 19.8523C88.0289 21.2499 88.083 22.6207 88.1912 23.9646C88.2452 24.5022 88.5021 24.771 88.9618 24.771C89.4756 24.771 90.76 24.5156 92.815 24.005C95.0323 23.4674 96.7223 23.1986 97.885 23.1986C99.2371 23.1986 100.359 23.6152 101.252 24.4484C102.387 25.4967 102.955 27.2035 102.955 29.5687C102.955 31.7727 102.482 33.3989 101.535 34.4471C100.616 35.4685 99.3993 35.9792 97.885 35.9792C96.7223 35.9792 95.0323 35.7104 92.815 35.1728C91.6523 34.8772 90.9222 34.7293 90.6248 34.7293C90.2733 34.7293 90.0975 34.9041 90.0975 35.2535C90.0975 35.5223 90.5437 37.2962 91.436 40.5753C92.0038 42.6987 92.4905 44.6743 92.8961 46.502C93.3018 48.3028 93.5045 49.9021 93.5045 51.2997C93.5045 54.4714 92.5446 56.971 90.6248 58.7987C88.732 60.5996 86.2037 61.5 83.04 61.5Z"/>
<path d="M117.719 61.5C114.907 61.5 112.595 60.6399 110.783 58.9197C108.999 57.1995 108.106 54.8342 108.106 51.8239C108.106 49.0823 108.769 46.0988 110.094 42.8734C110.553 41.7445 110.945 40.6425 111.27 39.5674C111.621 38.4654 111.797 37.3097 111.797 36.1001C111.797 34.5143 111.513 32.5388 110.945 30.1735C110.324 27.5394 110.013 25.1876 110.013 23.118C110.013 20.6452 110.756 18.7234 112.243 17.3526C113.758 15.9549 115.583 15.2561 117.719 15.2561C119.882 15.2561 121.707 15.9549 123.195 17.3526C124.709 18.7234 125.466 20.6452 125.466 23.118C125.466 25.1876 125.155 27.5394 124.533 30.1735C123.965 32.5388 123.681 34.5143 123.681 36.1001C123.681 37.3097 123.844 38.4654 124.168 39.5674C124.52 40.6425 124.925 41.7445 125.385 42.8734C126.71 46.0988 127.372 49.0823 127.372 51.8239C127.372 54.8342 126.466 57.1995 124.655 58.9197C122.87 60.6399 120.558 61.5 117.719 61.5ZM117.719 13.5225C116.313 13.5225 114.961 13.2806 113.663 12.7968C112.365 12.313 111.297 11.5872 110.459 10.6196C109.648 9.65202 109.242 8.4425 109.242 6.99108C109.242 5.56653 109.648 4.37046 110.459 3.40284C111.297 2.43523 112.365 1.70952 113.663 1.22571C114.961 0.741904 116.313 0.5 117.719 0.5C119.152 0.5 120.518 0.741904 121.816 1.22571C123.113 1.70952 124.168 2.43523 124.979 3.40284C125.818 4.37046 126.237 5.56653 126.237 6.99108C126.237 8.4425 125.818 9.65202 124.979 10.6196C124.168 11.5872 123.113 12.313 121.816 12.7968C120.518 13.2806 119.152 13.5225 117.719 13.5225Z"/>
<path d="M165.012 61.5C162.146 61.5 159.902 60.5996 158.279 58.7987C156.657 56.971 155.846 54.4714 155.846 51.2997C155.846 49.5795 156.021 47.94 156.373 46.381C156.751 44.8221 157.171 43.29 157.63 41.7849C158.117 40.2528 158.55 38.7073 158.928 37.1484C159.307 35.5894 159.496 33.9499 159.496 32.2297C159.496 30.6707 159.212 29.394 158.644 28.3995C157.914 27.1094 156.778 26.4643 155.237 26.4643C153.047 26.4643 150.951 27.6604 148.95 30.0525C146.976 32.4178 145.989 34.9175 145.989 37.5516C145.989 38.6804 146.638 40.4544 147.936 42.8734C148.612 44.1636 149.221 45.5344 149.762 46.9858C150.302 48.4372 150.573 50.0633 150.573 51.8642C150.573 54.8477 149.667 57.1995 147.855 58.9197C146.071 60.6399 143.772 61.5 140.96 61.5C138.148 61.5 135.836 60.6399 134.024 58.9197C132.24 57.1995 131.347 54.8611 131.347 51.9045C131.347 50.0768 131.618 48.4372 132.158 46.9858C132.699 45.5344 133.321 44.1636 134.024 42.8734C134.619 41.7714 135.133 40.6694 135.565 39.5674C135.998 38.4654 136.214 37.3097 136.214 36.1001C136.214 34.9981 136.066 33.9768 135.768 33.036C135.498 32.0684 135.173 31.1008 134.795 30.1332C134.416 29.1656 134.051 28.1173 133.7 26.9884C133.375 25.8327 133.213 24.5425 133.213 23.118C133.213 20.6452 133.97 18.7234 135.484 17.3526C136.999 15.9549 138.824 15.2561 140.96 15.2561C143.096 15.2561 144.921 15.9415 146.436 17.3123C147.193 18.038 147.774 18.8981 148.18 19.8926C148.342 20.3226 148.531 20.5377 148.748 20.5377C148.964 20.5377 149.221 20.3764 149.518 20.0539C152.574 16.8554 156.157 15.2561 160.267 15.2561C162.159 15.2561 163.958 15.6055 165.661 16.3044C167.392 16.9763 168.784 18.0514 169.839 19.5297C170.893 20.9812 171.421 22.8358 171.421 25.0935C171.421 26.5718 171.245 28.0367 170.893 29.4881C170.407 31.5308 170.163 33.1704 170.163 34.4068C170.163 36.0195 170.38 37.5112 170.812 38.882C171.245 40.2528 171.759 41.6236 172.354 42.9944C172.948 44.3652 173.476 45.8032 173.935 47.3083C174.395 48.8135 174.625 50.4531 174.625 52.227C174.625 55.1568 173.692 57.4414 171.826 59.081C169.961 60.6937 167.689 61.5 165.012 61.5Z"/>
<path d="M200.989 61.4597C196.338 61.4597 192.323 60.6399 188.943 59.0003C185.59 57.3339 183.007 55.1433 181.196 52.4286C179.384 49.7139 178.478 46.7708 178.478 43.5991C178.478 37.0409 180.979 32.0147 185.982 28.5205C186.658 28.0636 186.996 27.5932 186.996 27.1094C186.996 26.6256 186.698 26.0611 186.104 25.4161C183.805 22.8089 182.656 19.5566 182.656 15.6593C182.656 11.3857 184.413 7.81086 187.929 4.9349C191.444 2.05893 195.797 0.620952 200.989 0.620952C206.181 0.620952 210.534 2.05893 214.049 4.9349C217.565 7.81086 219.322 11.3857 219.322 15.6593C219.322 19.5566 218.173 22.8089 215.875 25.4161C215.28 26.0611 214.982 26.6256 214.982 27.1094C214.982 27.5932 215.32 28.0636 215.996 28.5205C220.999 32.0147 223.5 37.0409 223.5 43.5991C223.5 46.7708 222.594 49.7139 220.782 52.4286C218.971 55.1433 216.375 57.3339 212.995 59.0003C209.642 60.6399 205.64 61.4597 200.989 61.4597ZM200.989 45.0102C203.666 45.0102 205.843 44.3114 207.519 42.9137C208.682 41.973 209.263 40.6963 209.263 39.0836C209.263 36.8796 208.276 35.1191 206.302 33.802C204.896 32.8344 203.125 32.3506 200.989 32.3506C198.853 32.3506 197.082 32.8344 195.676 33.802C193.702 35.1191 192.715 36.8796 192.715 39.0836C192.715 40.6963 193.296 41.973 194.459 42.9137C196.135 44.3114 198.312 45.0102 200.989 45.0102ZM200.989 22.3519C203.288 22.3519 205.167 21.7338 206.627 20.4974C207.627 19.6641 208.128 18.5487 208.128 17.151C208.128 15.8071 207.465 14.7051 206.14 13.845C204.815 12.958 203.098 12.5145 200.989 12.5145C198.88 12.5145 197.163 12.958 195.838 13.845C194.513 14.7051 193.85 15.8071 193.85 17.151C193.85 18.5487 194.351 19.6641 195.351 20.4974C196.811 21.7338 198.691 22.3519 200.989 22.3519Z"/>
</mask>
<path d="M10.924 61.5C7.76028 61.5 5.23202 60.5996 3.33921 58.7987C1.4464 56.971 0.5 54.4714 0.5 51.2997C0.5 49.6064 0.770401 47.9265 1.3112 46.2601C1.87905 44.5668 2.51449 42.8734 3.21753 41.1801C3.92058 39.4868 4.5425 37.7935 5.0833 36.1001C5.65115 34.4068 5.93507 32.7 5.93507 30.9798C5.93507 29.3403 5.73227 27.741 5.32666 26.1821C4.92106 24.5963 4.43434 22.9836 3.8665 21.344C3.32569 19.7045 2.82545 18.0111 2.36577 16.264C1.93313 14.4901 1.71681 12.6355 1.71681 10.7003C1.71681 7.52864 2.46041 5.04241 3.94762 3.24157C5.43482 1.41386 7.76028 0.5 10.924 0.5C14.0877 0.5 16.4131 1.41386 17.9003 3.24157C19.4146 5.04241 20.1717 7.52864 20.1717 10.7003C20.1717 12.4742 19.9419 14.2213 19.4822 15.9415C19.0495 17.6617 18.5493 19.355 17.9814 21.0215C17.4406 22.6879 16.9539 24.3409 16.5213 25.9805C16.1157 27.6201 15.9129 29.2865 15.9129 30.9798C15.9129 32.7 16.1833 34.4202 16.7241 36.1404C17.2919 37.8338 17.9274 39.5271 18.6304 41.2204C19.3605 42.9137 19.9959 44.6071 20.5367 46.3004C21.1046 47.9668 21.3885 49.6333 21.3885 51.2997C21.3885 54.4714 20.4286 56.971 18.5087 58.7987C16.6159 60.5996 14.0877 61.5 10.924 61.5Z" fill="white"/>
<path d="M58.9067 61.5C56.0404 61.5 53.7961 60.5996 52.1737 58.7987C50.5513 56.971 49.7401 54.4714 49.7401 51.2997C49.7401 49.5795 49.9158 47.94 50.2674 46.381C50.6459 44.8221 51.0651 43.29 51.5247 41.7849C52.0115 40.2528 52.4441 38.7073 52.8227 37.1484C53.2012 35.5894 53.3905 33.9499 53.3905 32.2297C53.3905 30.6707 53.1066 29.394 52.5387 28.3995C51.8087 27.1094 50.673 26.4643 49.1317 26.4643C46.9414 26.4643 44.8458 27.6604 42.8449 30.0525C40.8709 32.4178 39.884 34.9175 39.884 37.5516C39.884 38.6804 40.5329 40.4544 41.8308 42.8734C42.5069 44.1636 43.1153 45.5344 43.6561 46.9858C44.1969 48.4372 44.4673 50.0633 44.4673 51.8642C44.4673 54.8477 43.5614 57.1995 41.7497 58.9197C39.9651 60.6399 37.6667 61.5 34.8545 61.5C32.0423 61.5 29.7304 60.6399 27.9187 58.9197C26.134 57.1995 25.2417 54.8611 25.2417 51.9045C25.2417 50.0768 25.5121 48.4372 26.0529 46.9858C26.5937 45.5344 27.2157 44.1636 27.9187 42.8734C28.5136 41.7714 29.0273 40.6694 29.46 39.5674C29.8926 38.4654 30.1089 37.3097 30.1089 36.1001C30.1089 34.9981 29.9602 33.9768 29.6628 33.036C29.3924 32.0684 29.0679 31.1008 28.6893 30.1332C28.3108 29.1656 27.9457 28.1173 27.5942 26.9884C27.2697 25.8327 27.1075 24.5425 27.1075 23.118C27.1075 20.6452 27.8646 18.7234 29.3789 17.3526C30.8931 15.9549 32.7183 15.2561 34.8545 15.2561C36.9907 15.2561 38.8159 15.9415 40.3301 17.3123C41.0872 18.038 41.6686 18.8981 42.0742 19.8926C42.2365 20.3226 42.4257 20.5377 42.6421 20.5377C42.8584 20.5377 43.1153 20.3764 43.4127 20.0539C46.4682 16.8554 50.051 15.2561 54.1612 15.2561C56.054 15.2561 57.8521 15.6055 59.5557 16.3044C61.2862 16.9763 62.6788 18.0514 63.7334 19.5297C64.7879 20.9812 65.3152 22.8358 65.3152 25.0935C65.3152 26.5718 65.1394 28.0367 64.7879 29.4881C64.3012 31.5308 64.0578 33.1704 64.0578 34.4068C64.0578 36.0195 64.2742 37.5112 64.7068 38.882C65.1394 40.2528 65.6532 41.6236 66.2481 42.9944C66.843 44.3652 67.3703 45.8032 67.8299 47.3083C68.2896 48.8135 68.5195 50.4531 68.5195 52.227C68.5195 55.1568 67.5866 57.4414 65.7208 59.081C63.855 60.6937 61.5837 61.5 58.9067 61.5Z" fill="white"/>
<path d="M83.04 61.5C79.9034 61.5 77.3751 60.5996 75.4553 58.7987C73.5624 56.971 72.616 54.4714 72.616 51.2997C72.616 49.6333 72.8324 47.9534 73.265 46.2601C73.6976 44.5668 74.1844 42.8734 74.7252 41.1801C75.293 39.4868 75.7933 37.7935 76.2259 36.1001C76.6585 34.4068 76.8749 32.7 76.8749 30.9798C76.8749 28.8296 76.5504 25.9939 75.9014 22.4729C75.3065 19.3819 75.0091 16.8957 75.0091 15.0142C75.0091 11.6813 75.7527 8.93974 77.2399 6.78949C78.7542 4.63924 80.7957 3.05343 83.3645 2.03206C85.9333 1.01069 88.8131 0.5 92.0038 0.5C95.0594 0.5 97.9121 1.17195 100.562 2.51586C103.239 3.85977 105.105 5.66061 106.159 7.91837C106.646 8.91287 106.889 9.8536 106.889 10.7406C106.889 14.2616 105.132 16.0221 101.617 16.0221C99.9131 16.0221 98.4529 15.2024 97.2361 13.5628C96.7223 12.8908 96.0463 12.2995 95.2081 11.7888C94.3969 11.2513 93.5316 10.9825 92.6122 10.9825C90.9357 10.9825 89.746 11.6813 89.0429 13.079C88.3669 14.4498 88.0289 16.7075 88.0289 19.8523C88.0289 21.2499 88.083 22.6207 88.1912 23.9646C88.2452 24.5022 88.5021 24.771 88.9618 24.771C89.4756 24.771 90.76 24.5156 92.815 24.005C95.0323 23.4674 96.7223 23.1986 97.885 23.1986C99.2371 23.1986 100.359 23.6152 101.252 24.4484C102.387 25.4967 102.955 27.2035 102.955 29.5687C102.955 31.7727 102.482 33.3989 101.535 34.4471C100.616 35.4685 99.3993 35.9792 97.885 35.9792C96.7223 35.9792 95.0323 35.7104 92.815 35.1728C91.6523 34.8772 90.9222 34.7293 90.6248 34.7293C90.2733 34.7293 90.0975 34.9041 90.0975 35.2535C90.0975 35.5223 90.5437 37.2962 91.436 40.5753C92.0038 42.6987 92.4905 44.6743 92.8961 46.502C93.3018 48.3028 93.5045 49.9021 93.5045 51.2997C93.5045 54.4714 92.5446 56.971 90.6248 58.7987C88.732 60.5996 86.2037 61.5 83.04 61.5Z" fill="white"/>
<path d="M117.719 61.5C114.907 61.5 112.595 60.6399 110.783 58.9197C108.999 57.1995 108.106 54.8342 108.106 51.8239C108.106 49.0823 108.769 46.0988 110.094 42.8734C110.553 41.7445 110.945 40.6425 111.27 39.5674C111.621 38.4654 111.797 37.3097 111.797 36.1001C111.797 34.5143 111.513 32.5388 110.945 30.1735C110.324 27.5394 110.013 25.1876 110.013 23.118C110.013 20.6452 110.756 18.7234 112.243 17.3526C113.758 15.9549 115.583 15.2561 117.719 15.2561C119.882 15.2561 121.707 15.9549 123.195 17.3526C124.709 18.7234 125.466 20.6452 125.466 23.118C125.466 25.1876 125.155 27.5394 124.533 30.1735C123.965 32.5388 123.681 34.5143 123.681 36.1001C123.681 37.3097 123.844 38.4654 124.168 39.5674C124.52 40.6425 124.925 41.7445 125.385 42.8734C126.71 46.0988 127.372 49.0823 127.372 51.8239C127.372 54.8342 126.466 57.1995 124.655 58.9197C122.87 60.6399 120.558 61.5 117.719 61.5ZM117.719 13.5225C116.313 13.5225 114.961 13.2806 113.663 12.7968C112.365 12.313 111.297 11.5872 110.459 10.6196C109.648 9.65202 109.242 8.4425 109.242 6.99108C109.242 5.56653 109.648 4.37046 110.459 3.40284C111.297 2.43523 112.365 1.70952 113.663 1.22571C114.961 0.741904 116.313 0.5 117.719 0.5C119.152 0.5 120.518 0.741904 121.816 1.22571C123.113 1.70952 124.168 2.43523 124.979 3.40284C125.818 4.37046 126.237 5.56653 126.237 6.99108C126.237 8.4425 125.818 9.65202 124.979 10.6196C124.168 11.5872 123.113 12.313 121.816 12.7968C120.518 13.2806 119.152 13.5225 117.719 13.5225Z" fill="white"/>
<path d="M165.012 61.5C162.146 61.5 159.902 60.5996 158.279 58.7987C156.657 56.971 155.846 54.4714 155.846 51.2997C155.846 49.5795 156.021 47.94 156.373 46.381C156.751 44.8221 157.171 43.29 157.63 41.7849C158.117 40.2528 158.55 38.7073 158.928 37.1484C159.307 35.5894 159.496 33.9499 159.496 32.2297C159.496 30.6707 159.212 29.394 158.644 28.3995C157.914 27.1094 156.778 26.4643 155.237 26.4643C153.047 26.4643 150.951 27.6604 148.95 30.0525C146.976 32.4178 145.989 34.9175 145.989 37.5516C145.989 38.6804 146.638 40.4544 147.936 42.8734C148.612 44.1636 149.221 45.5344 149.762 46.9858C150.302 48.4372 150.573 50.0633 150.573 51.8642C150.573 54.8477 149.667 57.1995 147.855 58.9197C146.071 60.6399 143.772 61.5 140.96 61.5C138.148 61.5 135.836 60.6399 134.024 58.9197C132.24 57.1995 131.347 54.8611 131.347 51.9045C131.347 50.0768 131.618 48.4372 132.158 46.9858C132.699 45.5344 133.321 44.1636 134.024 42.8734C134.619 41.7714 135.133 40.6694 135.565 39.5674C135.998 38.4654 136.214 37.3097 136.214 36.1001C136.214 34.9981 136.066 33.9768 135.768 33.036C135.498 32.0684 135.173 31.1008 134.795 30.1332C134.416 29.1656 134.051 28.1173 133.7 26.9884C133.375 25.8327 133.213 24.5425 133.213 23.118C133.213 20.6452 133.97 18.7234 135.484 17.3526C136.999 15.9549 138.824 15.2561 140.96 15.2561C143.096 15.2561 144.921 15.9415 146.436 17.3123C147.193 18.038 147.774 18.8981 148.18 19.8926C148.342 20.3226 148.531 20.5377 148.748 20.5377C148.964 20.5377 149.221 20.3764 149.518 20.0539C152.574 16.8554 156.157 15.2561 160.267 15.2561C162.159 15.2561 163.958 15.6055 165.661 16.3044C167.392 16.9763 168.784 18.0514 169.839 19.5297C170.893 20.9812 171.421 22.8358 171.421 25.0935C171.421 26.5718 171.245 28.0367 170.893 29.4881C170.407 31.5308 170.163 33.1704 170.163 34.4068C170.163 36.0195 170.38 37.5112 170.812 38.882C171.245 40.2528 171.759 41.6236 172.354 42.9944C172.948 44.3652 173.476 45.8032 173.935 47.3083C174.395 48.8135 174.625 50.4531 174.625 52.227C174.625 55.1568 173.692 57.4414 171.826 59.081C169.961 60.6937 167.689 61.5 165.012 61.5Z" fill="white"/>
<path d="M200.989 61.4597C196.338 61.4597 192.323 60.6399 188.943 59.0003C185.59 57.3339 183.007 55.1433 181.196 52.4286C179.384 49.7139 178.478 46.7708 178.478 43.5991C178.478 37.0409 180.979 32.0147 185.982 28.5205C186.658 28.0636 186.996 27.5932 186.996 27.1094C186.996 26.6256 186.698 26.0611 186.104 25.4161C183.805 22.8089 182.656 19.5566 182.656 15.6593C182.656 11.3857 184.413 7.81086 187.929 4.9349C191.444 2.05893 195.797 0.620952 200.989 0.620952C206.181 0.620952 210.534 2.05893 214.049 4.9349C217.565 7.81086 219.322 11.3857 219.322 15.6593C219.322 19.5566 218.173 22.8089 215.875 25.4161C215.28 26.0611 214.982 26.6256 214.982 27.1094C214.982 27.5932 215.32 28.0636 215.996 28.5205C220.999 32.0147 223.5 37.0409 223.5 43.5991C223.5 46.7708 222.594 49.7139 220.782 52.4286C218.971 55.1433 216.375 57.3339 212.995 59.0003C209.642 60.6399 205.64 61.4597 200.989 61.4597ZM200.989 45.0102C203.666 45.0102 205.843 44.3114 207.519 42.9137C208.682 41.973 209.263 40.6963 209.263 39.0836C209.263 36.8796 208.276 35.1191 206.302 33.802C204.896 32.8344 203.125 32.3506 200.989 32.3506C198.853 32.3506 197.082 32.8344 195.676 33.802C193.702 35.1191 192.715 36.8796 192.715 39.0836C192.715 40.6963 193.296 41.973 194.459 42.9137C196.135 44.3114 198.312 45.0102 200.989 45.0102ZM200.989 22.3519C203.288 22.3519 205.167 21.7338 206.627 20.4974C207.627 19.6641 208.128 18.5487 208.128 17.151C208.128 15.8071 207.465 14.7051 206.14 13.845C204.815 12.958 203.098 12.5145 200.989 12.5145C198.88 12.5145 197.163 12.958 195.838 13.845C194.513 14.7051 193.85 15.8071 193.85 17.151C193.85 18.5487 194.351 19.6641 195.351 20.4974C196.811 21.7338 198.691 22.3519 200.989 22.3519Z" fill="white"/>
<path d="M10.924 61.5C7.76028 61.5 5.23202 60.5996 3.33921 58.7987C1.4464 56.971 0.5 54.4714 0.5 51.2997C0.5 49.6064 0.770401 47.9265 1.3112 46.2601C1.87905 44.5668 2.51449 42.8734 3.21753 41.1801C3.92058 39.4868 4.5425 37.7935 5.0833 36.1001C5.65115 34.4068 5.93507 32.7 5.93507 30.9798C5.93507 29.3403 5.73227 27.741 5.32666 26.1821C4.92106 24.5963 4.43434 22.9836 3.8665 21.344C3.32569 19.7045 2.82545 18.0111 2.36577 16.264C1.93313 14.4901 1.71681 12.6355 1.71681 10.7003C1.71681 7.52864 2.46041 5.04241 3.94762 3.24157C5.43482 1.41386 7.76028 0.5 10.924 0.5C14.0877 0.5 16.4131 1.41386 17.9003 3.24157C19.4146 5.04241 20.1717 7.52864 20.1717 10.7003C20.1717 12.4742 19.9419 14.2213 19.4822 15.9415C19.0495 17.6617 18.5493 19.355 17.9814 21.0215C17.4406 22.6879 16.9539 24.3409 16.5213 25.9805C16.1157 27.6201 15.9129 29.2865 15.9129 30.9798C15.9129 32.7 16.1833 34.4202 16.7241 36.1404C17.2919 37.8338 17.9274 39.5271 18.6304 41.2204C19.3605 42.9137 19.9959 44.6071 20.5367 46.3004C21.1046 47.9668 21.3885 49.6333 21.3885 51.2997C21.3885 54.4714 20.4286 56.971 18.5087 58.7987C16.6159 60.5996 14.0877 61.5 10.924 61.5Z" stroke="white" mask="url(#path-1-outside-1_558_97)"/>
<path d="M58.9067 61.5C56.0404 61.5 53.7961 60.5996 52.1737 58.7987C50.5513 56.971 49.7401 54.4714 49.7401 51.2997C49.7401 49.5795 49.9158 47.94 50.2674 46.381C50.6459 44.8221 51.0651 43.29 51.5247 41.7849C52.0115 40.2528 52.4441 38.7073 52.8227 37.1484C53.2012 35.5894 53.3905 33.9499 53.3905 32.2297C53.3905 30.6707 53.1066 29.394 52.5387 28.3995C51.8087 27.1094 50.673 26.4643 49.1317 26.4643C46.9414 26.4643 44.8458 27.6604 42.8449 30.0525C40.8709 32.4178 39.884 34.9175 39.884 37.5516C39.884 38.6804 40.5329 40.4544 41.8308 42.8734C42.5069 44.1636 43.1153 45.5344 43.6561 46.9858C44.1969 48.4372 44.4673 50.0633 44.4673 51.8642C44.4673 54.8477 43.5614 57.1995 41.7497 58.9197C39.9651 60.6399 37.6667 61.5 34.8545 61.5C32.0423 61.5 29.7304 60.6399 27.9187 58.9197C26.134 57.1995 25.2417 54.8611 25.2417 51.9045C25.2417 50.0768 25.5121 48.4372 26.0529 46.9858C26.5937 45.5344 27.2157 44.1636 27.9187 42.8734C28.5136 41.7714 29.0273 40.6694 29.46 39.5674C29.8926 38.4654 30.1089 37.3097 30.1089 36.1001C30.1089 34.9981 29.9602 33.9768 29.6628 33.036C29.3924 32.0684 29.0679 31.1008 28.6893 30.1332C28.3108 29.1656 27.9457 28.1173 27.5942 26.9884C27.2697 25.8327 27.1075 24.5425 27.1075 23.118C27.1075 20.6452 27.8646 18.7234 29.3789 17.3526C30.8931 15.9549 32.7183 15.2561 34.8545 15.2561C36.9907 15.2561 38.8159 15.9415 40.3301 17.3123C41.0872 18.038 41.6686 18.8981 42.0742 19.8926C42.2365 20.3226 42.4257 20.5377 42.6421 20.5377C42.8584 20.5377 43.1153 20.3764 43.4127 20.0539C46.4682 16.8554 50.051 15.2561 54.1612 15.2561C56.054 15.2561 57.8521 15.6055 59.5557 16.3044C61.2862 16.9763 62.6788 18.0514 63.7334 19.5297C64.7879 20.9812 65.3152 22.8358 65.3152 25.0935C65.3152 26.5718 65.1394 28.0367 64.7879 29.4881C64.3012 31.5308 64.0578 33.1704 64.0578 34.4068C64.0578 36.0195 64.2742 37.5112 64.7068 38.882C65.1394 40.2528 65.6532 41.6236 66.2481 42.9944C66.843 44.3652 67.3703 45.8032 67.8299 47.3083C68.2896 48.8135 68.5195 50.4531 68.5195 52.227C68.5195 55.1568 67.5866 57.4414 65.7208 59.081C63.855 60.6937 61.5837 61.5 58.9067 61.5Z" stroke="white" mask="url(#path-1-outside-1_558_97)"/>
<path d="M83.04 61.5C79.9034 61.5 77.3751 60.5996 75.4553 58.7987C73.5624 56.971 72.616 54.4714 72.616 51.2997C72.616 49.6333 72.8324 47.9534 73.265 46.2601C73.6976 44.5668 74.1844 42.8734 74.7252 41.1801C75.293 39.4868 75.7933 37.7935 76.2259 36.1001C76.6585 34.4068 76.8749 32.7 76.8749 30.9798C76.8749 28.8296 76.5504 25.9939 75.9014 22.4729C75.3065 19.3819 75.0091 16.8957 75.0091 15.0142C75.0091 11.6813 75.7527 8.93974 77.2399 6.78949C78.7542 4.63924 80.7957 3.05343 83.3645 2.03206C85.9333 1.01069 88.8131 0.5 92.0038 0.5C95.0594 0.5 97.9121 1.17195 100.562 2.51586C103.239 3.85977 105.105 5.66061 106.159 7.91837C106.646 8.91287 106.889 9.8536 106.889 10.7406C106.889 14.2616 105.132 16.0221 101.617 16.0221C99.9131 16.0221 98.4529 15.2024 97.2361 13.5628C96.7223 12.8908 96.0463 12.2995 95.2081 11.7888C94.3969 11.2513 93.5316 10.9825 92.6122 10.9825C90.9357 10.9825 89.746 11.6813 89.0429 13.079C88.3669 14.4498 88.0289 16.7075 88.0289 19.8523C88.0289 21.2499 88.083 22.6207 88.1912 23.9646C88.2452 24.5022 88.5021 24.771 88.9618 24.771C89.4756 24.771 90.76 24.5156 92.815 24.005C95.0323 23.4674 96.7223 23.1986 97.885 23.1986C99.2371 23.1986 100.359 23.6152 101.252 24.4484C102.387 25.4967 102.955 27.2035 102.955 29.5687C102.955 31.7727 102.482 33.3989 101.535 34.4471C100.616 35.4685 99.3993 35.9792 97.885 35.9792C96.7223 35.9792 95.0323 35.7104 92.815 35.1728C91.6523 34.8772 90.9222 34.7293 90.6248 34.7293C90.2733 34.7293 90.0975 34.9041 90.0975 35.2535C90.0975 35.5223 90.5437 37.2962 91.436 40.5753C92.0038 42.6987 92.4905 44.6743 92.8961 46.502C93.3018 48.3028 93.5045 49.9021 93.5045 51.2997C93.5045 54.4714 92.5446 56.971 90.6248 58.7987C88.732 60.5996 86.2037 61.5 83.04 61.5Z" stroke="white" mask="url(#path-1-outside-1_558_97)"/>
<path d="M117.719 61.5C114.907 61.5 112.595 60.6399 110.783 58.9197C108.999 57.1995 108.106 54.8342 108.106 51.8239C108.106 49.0823 108.769 46.0988 110.094 42.8734C110.553 41.7445 110.945 40.6425 111.27 39.5674C111.621 38.4654 111.797 37.3097 111.797 36.1001C111.797 34.5143 111.513 32.5388 110.945 30.1735C110.324 27.5394 110.013 25.1876 110.013 23.118C110.013 20.6452 110.756 18.7234 112.243 17.3526C113.758 15.9549 115.583 15.2561 117.719 15.2561C119.882 15.2561 121.707 15.9549 123.195 17.3526C124.709 18.7234 125.466 20.6452 125.466 23.118C125.466 25.1876 125.155 27.5394 124.533 30.1735C123.965 32.5388 123.681 34.5143 123.681 36.1001C123.681 37.3097 123.844 38.4654 124.168 39.5674C124.52 40.6425 124.925 41.7445 125.385 42.8734C126.71 46.0988 127.372 49.0823 127.372 51.8239C127.372 54.8342 126.466 57.1995 124.655 58.9197C122.87 60.6399 120.558 61.5 117.719 61.5ZM117.719 13.5225C116.313 13.5225 114.961 13.2806 113.663 12.7968C112.365 12.313 111.297 11.5872 110.459 10.6196C109.648 9.65202 109.242 8.4425 109.242 6.99108C109.242 5.56653 109.648 4.37046 110.459 3.40284C111.297 2.43523 112.365 1.70952 113.663 1.22571C114.961 0.741904 116.313 0.5 117.719 0.5C119.152 0.5 120.518 0.741904 121.816 1.22571C123.113 1.70952 124.168 2.43523 124.979 3.40284C125.818 4.37046 126.237 5.56653 126.237 6.99108C126.237 8.4425 125.818 9.65202 124.979 10.6196C124.168 11.5872 123.113 12.313 121.816 12.7968C120.518 13.2806 119.152 13.5225 117.719 13.5225Z" stroke="white" mask="url(#path-1-outside-1_558_97)"/>
<path d="M165.012 61.5C162.146 61.5 159.902 60.5996 158.279 58.7987C156.657 56.971 155.846 54.4714 155.846 51.2997C155.846 49.5795 156.021 47.94 156.373 46.381C156.751 44.8221 157.171 43.29 157.63 41.7849C158.117 40.2528 158.55 38.7073 158.928 37.1484C159.307 35.5894 159.496 33.9499 159.496 32.2297C159.496 30.6707 159.212 29.394 158.644 28.3995C157.914 27.1094 156.778 26.4643 155.237 26.4643C153.047 26.4643 150.951 27.6604 148.95 30.0525C146.976 32.4178 145.989 34.9175 145.989 37.5516C145.989 38.6804 146.638 40.4544 147.936 42.8734C148.612 44.1636 149.221 45.5344 149.762 46.9858C150.302 48.4372 150.573 50.0633 150.573 51.8642C150.573 54.8477 149.667 57.1995 147.855 58.9197C146.071 60.6399 143.772 61.5 140.96 61.5C138.148 61.5 135.836 60.6399 134.024 58.9197C132.24 57.1995 131.347 54.8611 131.347 51.9045C131.347 50.0768 131.618 48.4372 132.158 46.9858C132.699 45.5344 133.321 44.1636 134.024 42.8734C134.619 41.7714 135.133 40.6694 135.565 39.5674C135.998 38.4654 136.214 37.3097 136.214 36.1001C136.214 34.9981 136.066 33.9768 135.768 33.036C135.498 32.0684 135.173 31.1008 134.795 30.1332C134.416 29.1656 134.051 28.1173 133.7 26.9884C133.375 25.8327 133.213 24.5425 133.213 23.118C133.213 20.6452 133.97 18.7234 135.484 17.3526C136.999 15.9549 138.824 15.2561 140.96 15.2561C143.096 15.2561 144.921 15.9415 146.436 17.3123C147.193 18.038 147.774 18.8981 148.18 19.8926C148.342 20.3226 148.531 20.5377 148.748 20.5377C148.964 20.5377 149.221 20.3764 149.518 20.0539C152.574 16.8554 156.157 15.2561 160.267 15.2561C162.159 15.2561 163.958 15.6055 165.661 16.3044C167.392 16.9763 168.784 18.0514 169.839 19.5297C170.893 20.9812 171.421 22.8358 171.421 25.0935C171.421 26.5718 171.245 28.0367 170.893 29.4881C170.407 31.5308 170.163 33.1704 170.163 34.4068C170.163 36.0195 170.38 37.5112 170.812 38.882C171.245 40.2528 171.759 41.6236 172.354 42.9944C172.948 44.3652 173.476 45.8032 173.935 47.3083C174.395 48.8135 174.625 50.4531 174.625 52.227C174.625 55.1568 173.692 57.4414 171.826 59.081C169.961 60.6937 167.689 61.5 165.012 61.5Z" stroke="white" mask="url(#path-1-outside-1_558_97)"/>
<path d="M200.989 61.4597C196.338 61.4597 192.323 60.6399 188.943 59.0003C185.59 57.3339 183.007 55.1433 181.196 52.4286C179.384 49.7139 178.478 46.7708 178.478 43.5991C178.478 37.0409 180.979 32.0147 185.982 28.5205C186.658 28.0636 186.996 27.5932 186.996 27.1094C186.996 26.6256 186.698 26.0611 186.104 25.4161C183.805 22.8089 182.656 19.5566 182.656 15.6593C182.656 11.3857 184.413 7.81086 187.929 4.9349C191.444 2.05893 195.797 0.620952 200.989 0.620952C206.181 0.620952 210.534 2.05893 214.049 4.9349C217.565 7.81086 219.322 11.3857 219.322 15.6593C219.322 19.5566 218.173 22.8089 215.875 25.4161C215.28 26.0611 214.982 26.6256 214.982 27.1094C214.982 27.5932 215.32 28.0636 215.996 28.5205C220.999 32.0147 223.5 37.0409 223.5 43.5991C223.5 46.7708 222.594 49.7139 220.782 52.4286C218.971 55.1433 216.375 57.3339 212.995 59.0003C209.642 60.6399 205.64 61.4597 200.989 61.4597ZM200.989 45.0102C203.666 45.0102 205.843 44.3114 207.519 42.9137C208.682 41.973 209.263 40.6963 209.263 39.0836C209.263 36.8796 208.276 35.1191 206.302 33.802C204.896 32.8344 203.125 32.3506 200.989 32.3506C198.853 32.3506 197.082 32.8344 195.676 33.802C193.702 35.1191 192.715 36.8796 192.715 39.0836C192.715 40.6963 193.296 41.973 194.459 42.9137C196.135 44.3114 198.312 45.0102 200.989 45.0102ZM200.989 22.3519C203.288 22.3519 205.167 21.7338 206.627 20.4974C207.627 19.6641 208.128 18.5487 208.128 17.151C208.128 15.8071 207.465 14.7051 206.14 13.845C204.815 12.958 203.098 12.5145 200.989 12.5145C198.88 12.5145 197.163 12.958 195.838 13.845C194.513 14.7051 193.85 15.8071 193.85 17.151C193.85 18.5487 194.351 19.6641 195.351 20.4974C196.811 21.7338 198.691 22.3519 200.989 22.3519Z" stroke="white" mask="url(#path-1-outside-1_558_97)"/>
</svg>
